<?xml version="1.0" encoding="UTF-8" standalone="no"?>
<svg
   xmlns:dc="http://purl.org/dc/elements/1.1/"
   xmlns:cc="http://creativecommons.org/ns#"
   xmlns:rdf="http://www.w3.org/1999/02/22-rdf-syntax-ns#"
   xmlns:svg="http://www.w3.org/2000/svg"
   xmlns="http://www.w3.org/2000/svg"
   xmlns:sodipodi="http://sodipodi.sourceforge.net/DTD/sodipodi-0.dtd"
   xmlns:inkscape="http://www.inkscape.org/namespaces/inkscape"
   sodipodi:docname="brand_small_t.svg"
   inkscape:export-ydpi="69.623955"
   inkscape:export-xdpi="69.623955"
   inkscape:export-filename="/home/nikku/Projects/lefedt.de/assets/img/tree.png"
   inkscape:version="1.0beta1 (f28e716d6d, 2019-09-22)"
   version="1.1"
   id="svg2"
   viewBox="0 0 266.33718 94.976584"
   height="26.804502mm"
   width="75.166267mm">
  <defs
     id="defs4" />
  <sodipodi:namedview
     inkscape:document-rotation="0"
     fit-margin-bottom="2"
     fit-margin-right="0"
     fit-margin-left="2"
     fit-margin-top="0"
     inkscape:window-maximized="1"
     inkscape:window-y="57"
     inkscape:window-x="0"
     inkscape:window-height="1379"
     inkscape:window-width="2552"
     showgrid="false"
     inkscape:current-layer="layer1"
     inkscape:document-units="px"
     inkscape:cy="18.182446"
     inkscape:cx="-96.819549"
     inkscape:zoom="3.6083902"
     inkscape:pageshadow="2"
     inkscape:pageopacity="0.0"
     borderopacity="1.0"
     bordercolor="#666666"
     pagecolor="#ffffff"
     id="base" />
  <metadata
     id="metadata7">
    <rdf:RDF>
      <cc:Work
         rdf:about="">
        <dc:format>image/svg+xml</dc:format>
        <dc:type
           rdf:resource="http://purl.org/dc/dcmitype/StillImage" />
        <dc:title></dc:title>
      </cc:Work>
    </rdf:RDF>
  </metadata>
  <g
     style="display:inline"
     transform="translate(160.93017,-958.26835)"
     id="layer1"
     inkscape:groupmode="layer"
     inkscape:label="Layer 1">
    <g
       style="font-size:87.5px;line-height:1.25;font-family:'Source Sans Pro';-inkscape-font-specification:'Source Sans Pro';letter-spacing:0px;word-spacing:0px;writing-mode:lr-tb;stroke-width:0.9375"
       id="text1754"
       aria-label="lefed">
      <path
         inkscape:connector-curvature="0"
         id="path1756"
         style="font-style:normal;font-variant:normal;font-weight:normal;font-stretch:normal;font-family:'Donegal One';-inkscape-font-specification:'Donegal One';stroke-width:0.9375"
         d="m -153.5872,1041.4159 q 2.22168,-0.5982 3.58886,-1.1108 1.36719,-0.5127 2.09351,-1.41 0.72632,-0.8972 0.93994,-2.3925 0.25635,-1.4954 0.25635,-4.0589 v -42.51096 q 0,-2.30713 -0.59815,-3.54614 -0.59814,-1.28174 -1.58081,-1.96534 -0.98266,-0.68359 -2.2644,-0.98266 -1.28174,-0.29907 -2.69165,-0.64087 v -3.1189 q 1.92261,-0.38452 3.37524,-0.68359 1.45264,-0.29907 2.6062,-0.59815 1.15357,-0.29907 2.13623,-0.59814 0.98267,-0.3418 2.00806,-0.76904 1.02539,-0.42725 2.22168,-0.98267 1.19629,-0.59814 2.7771,-1.40991 l 1.58081,0.89722 q -0.29907,2.99072 -0.42725,6.75048 -0.12817,3.71705 -0.17089,7.81861 -0.0427,4.05884 -0.0427,8.24585 0.0427,4.18701 0.0427,8.11771 v 32.5988 l 7.34863,2.3499 v 3.5034 h -23.19946 z" />
      <path
         inkscape:connector-curvature="0"
         id="path1758"
         style="font-style:normal;font-variant:normal;font-weight:normal;font-stretch:normal;font-family:'Donegal One';-inkscape-font-specification:'Donegal One';stroke-width:0.9375"
         d="m -124.91899,1023.7279 q 0.0854,-4.6997 1.62353,-8.9294 1.58081,-4.2298 4.40064,-7.4341 2.86255,-3.2044 6.87866,-5.0842 4.01611,-1.8799 9.05762,-1.8799 4.101561,0 6.964109,1.2817 2.905274,1.239 4.742432,3.5889 1.837158,2.3071 2.648926,5.5969 0.811767,3.2471 0.726318,7.2632 -0.04272,0.5981 -0.08545,1.4099 0,0.769 -0.04273,1.4954 -0.04272,0.8117 -0.128173,1.7089 h -27.899172 q -0.0855,3.6744 0.55542,6.3233 0.68359,2.6062 1.79443,4.4433 1.15357,1.8372 2.64893,2.948 1.49536,1.1109 3.03344,1.709 1.58081,0.5982 3.1189,0.8118 1.53809,0.1709 2.81982,0.1709 1.87989,-0.47 3.930673,-1.0254 1.794434,-0.47 3.973389,-1.1536 2.178955,-0.6836 4.443359,-1.5381 l 1.452637,3.6744 q -2.349854,1.3244 -4.400635,2.4353 -2.050781,1.0681 -3.973389,1.9653 -1.879882,0.8545 -3.674324,1.4954 -1.75171,0.6836 -3.54614,1.1535 -5.46875,0 -9.48486,-1.5381 -3.97339,-1.538 -6.62232,-4.4006 -2.6062,-2.9053 -3.84521,-7.0496 -1.23901,-4.187 -1.11084,-9.4421 z m 8.88672,-5.426 q 4.22973,-0.043 7.22046,-0.1709 2.99072,-0.1282 4.95605,-0.2564 2.00806,-0.1281 3.16162,-0.2136 1.153567,-0.1282 1.666262,-0.2136 0.726319,-0.086 1.11084,-1.1109 0.427246,-1.0253 0.427246,-2.1362 0,-2.9053 -0.982666,-4.9133 -0.982666,-2.0081 -2.691652,-3.0762 -1.70898,-1.0681 -4.01611,-1.1108 -2.26441,-0.086 -4.82788,0.8545 -0.5127,0.1709 -1.49536,0.8972 -0.93995,0.7263 -1.92261,2.1789 -0.98267,1.4527 -1.75171,3.7598 -0.76904,2.2644 -0.85449,5.5115 z" />
      <path
         inkscape:connector-curvature="0"
         id="path1760"
         style="font-style:normal;font-variant:normal;font-weight:normal;font-stretch:normal;font-family:'Donegal One';-inkscape-font-specification:'Donegal One';stroke-width:0.9375"
         d="m -80.399948,1041.4159 q 2.69165,-0.5982 4.229736,-1.1108 1.580811,-0.5127 2.349854,-1.41 0.811767,-0.8972 1.02539,-2.3925 0.213623,-1.4954 0.213623,-4.0589 l 0.08545,-25.3357 h -6.835938 v -4.9133 l 6.835938,-0.8545 v -8.11767 q 0,-4.27246 1.708984,-7.69043 1.751709,-3.41796 4.699707,-5.76782 2.990723,-2.39258 6.964111,-3.63159 4.016114,-1.28174 8.502198,-1.28174 0.726318,0 1.708984,0.12818 0.982666,0.12817 1.837158,0.25634 1.025391,0.1709 2.008057,0.38453 l -1.538086,11.96289 h -3.717041 l -1.281738,-4.99878 q -0.213623,-0.59815 -1.025391,-0.93994 -0.811768,-0.3418 -1.965332,-0.46998 -1.11084,-0.12817 -2.435303,-0.0854 -1.281738,0.0427 -2.478027,0.21362 -1.153565,0.1709 -2.050781,0.46997 -0.897217,0.25635 -1.239014,0.55542 -0.170898,0.51269 -0.299072,1.87988 -0.128174,1.32446 -0.213623,3.16162 -0.08545,1.83716 -0.128174,3.93067 -0.04273,2.05078 -0.08545,4.01611 0,1.92261 0,3.54614 0,1.62348 0,2.47798 h 12.005615 v 5.7678 h -12.005615 q 0,3.8025 0,6.7932 0,2.948 -0.04272,5.4688 0,2.5207 0,4.8279 0,2.3071 0,4.8279 0,2.5207 0.08545,4.9987 0.08545,2.4353 0.256348,5.0415 l 9.100342,2.3499 v 3.5034 h -26.275635 z" />
      <path
         inkscape:connector-curvature="0"
         id="path1762"
         style="font-style:normal;font-variant:normal;font-weight:normal;font-stretch:normal;font-family:'Donegal One';-inkscape-font-specification:'Donegal One';stroke-width:0.9375"
         d="m -45.963913,1023.7279 q 0.08545,-4.6997 1.623535,-8.9294 1.580811,-4.2298 4.400635,-7.4341 2.862549,-3.2044 6.878662,-5.0842 4.016113,-1.8799 9.057617,-1.8799 4.101563,0 6.964112,1.2817 2.905273,1.239 4.742431,3.5889 1.837158,2.3071 2.648926,5.5969 0.8117676,3.2471 0.7263184,7.2632 -0.042725,0.5981 -0.085449,1.4099 0,0.769 -0.042725,1.4954 -0.042725,0.8117 -0.1281738,1.7089 H -37.077194 q -0.08545,3.6744 0.55542,6.3233 0.683593,2.6062 1.794433,4.4433 1.153565,1.8372 2.648926,2.948 1.495361,1.1109 3.033447,1.709 1.580811,0.5982 3.118897,0.8118 1.538086,0.1709 2.819824,0.1709 1.879883,-0.47 3.930664,-1.0254 1.794434,-0.47 3.973389,-1.1536 2.178955,-0.6836 4.443359,-1.5381 l 1.4526369,3.6744 q -2.3498539,1.3244 -4.4006349,2.4353 -2.050781,1.0681 -3.973389,1.9653 -1.879882,0.8545 -3.674316,1.4954 -1.751709,0.6836 -3.546143,1.1535 -5.46875,0 -9.484863,-1.5381 -3.973388,-1.538 -6.622314,-4.4006 -2.606201,-2.9053 -3.845215,-7.0496 -1.239014,-4.187 -1.11084,-9.4421 z m 8.886719,-5.426 q 4.229736,-0.043 7.220459,-0.1709 2.990722,-0.1282 4.956054,-0.2564 2.008057,-0.1281 3.161622,-0.2136 1.153564,-0.1282 1.666259,-0.2136 0.726319,-0.086 1.11084,-1.1109 0.427246,-1.0253 0.427246,-2.1362 0,-2.9053 -0.982666,-4.9133 -0.982666,-2.0081 -2.69165,-3.0762 -1.708985,-1.0681 -4.016113,-1.1108 -2.264405,-0.086 -4.827881,0.8545 -0.512696,0.1709 -1.495362,0.8972 -0.939941,0.7263 -1.922607,2.1789 -0.982666,1.4527 -1.751709,3.7598 -0.769043,2.2644 -0.854492,5.5115 z" />
      <path
         inkscape:connector-curvature="0"
         id="path1764"
         style="font-style:normal;font-variant:normal;font-weight:normal;font-stretch:normal;font-family:'Donegal One';-inkscape-font-specification:'Donegal One';stroke-width:0.9375"
         d="m -1.6157684,1025.0951 q 0,-4.9133 1.19628903,-8.844 1.19628906,-3.9734 3.46069337,-6.9214 1.6235351,-2.2217 3.717041,-3.8879 2.1362305,-1.6663 4.443359,-2.7771 2.349854,-1.1109 4.827881,-1.6663 2.478028,-0.5981 4.827881,-0.5981 2.435303,0 4.742432,0.3845 2.349853,0.3418 4.229736,0.6836 v -8.63039 q 0,-1.49536 0,-2.7771 0,-1.32446 -0.299072,-2.4353 -0.299072,-1.11084 -1.025391,-2.00806 -0.683594,-0.93994 -2.13623,-1.66626 -0.854492,-0.46997 -1.794434,-0.68359 -0.897217,-0.21362 -2.178955,-0.46997 v -3.1189 q 2.819824,-0.64087 4.870606,-1.15356 2.093505,-0.55542 3.80249,-1.11084 1.751709,-0.59815 3.332519,-1.23901 1.623535,-0.6836 3.503418,-1.53809 l 1.623535,0.89722 q -0.213623,2.30712 -0.341796,3.97338 -0.128174,1.66626 -0.213624,3.20435 -0.04272,1.49536 -0.08545,3.16162 -0.04272,1.62354 -0.08545,3.93067 v 47.33883 q 0,0.3418 0.128174,0.8545 0.128174,0.5127 0.341797,0.8545 0.256347,0.2991 0.811767,0.6836 0.598145,0.3418 1.281739,0.6836 0.726318,0.3418 1.538086,0.6836 0.811767,0.2991 1.538085,0.5127 v 3.5034 H 30.470413 q -0.128174,-0.8972 -0.213623,-1.9653 -0.08545,-0.8545 -0.128174,-1.9654 -0.04272,-1.1535 -0.04272,-2.3498 -4.656983,3.7598 -8.288574,5.426 -3.588868,1.6663 -5.853272,1.6663 -3.118896,0 -5.682373,-0.8972 -2.520752,-0.8973 -4.486084,-2.3926 -1.9226074,-1.5381 -3.3325195,-3.5889 -1.4099122,-2.0508 -2.30712895,-4.3152 -0.8972168,-2.3071 -1.32446285,-4.6997 -0.4272461,-2.4353 -0.4272461,-4.7424 z m 18.5852054,13.7573 q 1.196289,0 2.862548,-0.4272 1.708985,-0.4273 3.503418,-1.0681 1.794434,-0.6836 3.503418,-1.4954 1.708985,-0.8118 2.990723,-1.5808 v -25.6775 q -1.965332,-1.1108 -4.956055,-1.8799 -2.947998,-0.8118 -6.323242,-0.8972 -2.13623,-0.043 -4.144287,0.8118 -1.965332,0.8117 -3.503418,2.7343 -1.5380858,1.8799 -2.4780272,4.9988 -0.8972168,3.0762 -0.8972168,7.5623 0,3.717 0.7690429,6.8359 0.769043,3.1189 2.0507811,5.3833 1.281738,2.2217 2.990723,3.4607 1.708984,1.239 3.631592,1.239 z" />
    </g>
    <g
       style="opacity:1;stop-opacity:1"
       id="g970"
       inkscape:label="Clip"
       transform="translate(1.1027803,-2.0627619e-5)" />
    <text
       id="text1555"
       y="1044.9193"
       x="-157.68877"
       style="font-size:87.5px;line-height:1.25;font-family:'Source Sans Pro';-inkscape-font-specification:'Source Sans Pro';letter-spacing:0px;word-spacing:0px;writing-mode:lr-tb;fill:#444444;fill-opacity:1;stroke-width:0.9375"
       xml:space="preserve"><tspan
         style="font-style:normal;font-variant:normal;font-weight:normal;font-stretch:normal;font-family:'Donegal One';-inkscape-font-specification:'Donegal One';fill:#444444;fill-opacity:1;stroke-width:0.9375"
         y="1044.9193"
         x="-157.68877"
         id="tspan1553"
         sodipodi:role="line">lefed</tspan></text>
    <g
       style="stroke-width:1.14987"
       transform="matrix(0.86966607,0,0,0.86966607,10.816822,136.18828)"
       id="g1782">
      <path
         id="path1715"
         style="fill:#29c47d;fill-opacity:1;stroke:none;stroke-width:6.21558;stroke-linecap:round;stroke-linejoin:round;stroke-miterlimit:4;stroke-dasharray:none;stroke-opacity:1"
         d="m 141.14062,998.58203 c -0.003,0.093 -0.007,0.18464 -0.01,0.27735 -0.38213,1.44382 -1.25386,2.89682 -2.58203,3.65042 -1.41408,0.6768 -3.04689,-0.3364 -3.45899,-1.7637 -0.29553,-0.5553 -0.46816,-1.71997 -1.35156,-1.44337 -0.91173,3.97157 -1.29038,8.27577 -3.80859,11.64847 -0.56412,0.9042 -1.53762,1.615 -2.60547,1.6894 -2.3763,-0.1378 -3.83798,-2.3674 -4.9336,-4.2246 -1.17686,-2.1522 -2.17032,-4.4809 -2.41015,-6.9433 -2.43888,-0.8663 -5.10041,-0.6516 -7.65039,-0.7461 -1.60364,-0.014 -3.20769,0.011 -4.81055,-0.053 0.47785,1.3356 -0.21551,3.0175 -1.64453,3.3789 4.82637,2.6657 10.00095,5.1455 13.6543,9.4082 1.42926,1.7632 2.71677,3.9008 2.49804,6.2598 0.0166,6.1002 -2.39755,11.8203 -3.46093,17.7539 -0.36647,1.5346 -2.65544,2.416 -3.77353,3.5225 -0.40353,1.506 -0.29899,1.7087 -0.54222,3.38 7.18268,0 14.54267,-0.029 21.31575,-0.029 -0.62384,-1.26 -0.54673,-1.0582 -1.68946,-4.0196 -2.4183,-7.1221 -1.55473,-14.7986 -0.29101,-22.0566 0.78136,-3.4841 2.54262,-6.6961 4.60547,-9.586 2.29538,-3.135 5.14295,-5.8538 8.33203,-8.0683 -1.80278,-0.65625 -3.51287,-1.57777 -5.38282,-2.03517 z"
         inkscape:connector-curvature="0"
         sodipodi:nodetypes="cccccccccccccccccccccccc"
         transform="translate(-66.896631,0.54119866)" />
      <path
         id="path1512"
         d="m 46.250151,945.33993 c -3.890761,-0.25776 -7.818715,0.36661 -11.370965,1.567 -3.70549,0.87769 -5.53346,4.02252 -6.62052,6.36278 -0.54763,1.17897 -0.98696,2.25086 -1.37936,2.97109 -0.32823,0.60246 -0.50599,0.73374 -0.57937,0.80205 -2.56245,0.17648 -5.27756,0.75265 -7.7071,2.15873 -2.65075,1.53411 -4.92469,4.2399 -5.36074,7.79371 -0.83536,2.9721 -0.0833,5.662 0.45772,7.7772 0.54597,2.1346 0.77848,3.6464 0.49072,4.468 -1.26446,2.2586 -2.52369,5.0156 -2.97109,8.0555 -0.47147,3.2035 0.11453,6.9428 2.89067,9.6494 a 2.7001187,2.7001187 0 0 0 0.2165,0.1896 c 2.37164,1.8654 4.88493,2.1848 6.14423,2.668 0.62965,0.24161 0.89594,0.43851 1.03504,0.60621 0.1391,0.1677 0.31693,0.4213 0.36494,1.3608 a 2.7001187,2.7001187 0 0 0 0.25773,1.0206 c 1.87924,3.9631 5.74102,5.7646 9.30708,5.9689 3.56605,0.2043 7.05661,-0.7961 9.865824,-1.9917 a 2.7001187,2.7001187 0 0 0 0.06799,-0.031 c 1.071151,-0.4909 2.34636,-0.2421 4.437052,0.4846 2.09069,0.7266 4.694673,1.9414 7.884416,1.6742 l -0.632929,-0.021 c 6.877038,1.0504 12.834369,0.047 17.092529,-2.6701 4.15459,3.2316 9.429788,6.5646 15.706971,5.7154 3.645206,-0.3122 5.903894,-2.7397 7.544221,-4.2103 0.828594,-0.7428 1.529506,-1.2788 2.057702,-1.5195 0.528197,-0.2407 0.826123,-0.3104 1.546364,-0.1176 a 2.7001187,2.7001187 0 0 0 0.692774,0.093 c 3.55573,0.01 6.58354,-1.805 8.47616,-4.2885 1.87879,-2.46531 2.78941,-5.58281 2.56903,-8.71321 -0.0186,-3.8466 -0.93538,-7.5418 -2.25357,-10.9834 0.43441,-2.9154 0.87187,-6.2723 0.54638,-9.7008 -0.34778,-3.6636 -1.66973,-7.5183 -4.93188,-10.26586 a 2.7001187,2.7001187 0 0 0 -0.0556,-0.0454 c -3.945987,-3.14637 -8.765513,-4.27251 -13.34001,-4.66385 -4.400991,-5.37692 -10.792786,-9.69936 -18.37291,-9.59161 -4.645712,-0.30002 -9.300069,-0.0315 -13.874018,0.65773 -3.155255,-1.89574 -6.634343,-2.99453 -10.201905,-3.23089 z"
         style="color:#000000;font-style:normal;font-variant:normal;font-weight:normal;font-stretch:normal;font-size:medium;line-height:normal;font-family:sans-serif;font-variant-ligatures:normal;font-variant-position:normal;font-variant-caps:normal;font-variant-numeric:normal;font-variant-alternates:normal;font-variant-east-asian:normal;font-feature-settings:normal;font-variation-settings:normal;text-indent:0;text-align:start;text-decoration:none;text-decoration-line:none;text-decoration-style:solid;text-decoration-color:#000000;letter-spacing:normal;word-spacing:normal;text-transform:none;writing-mode:lr-tb;direction:ltr;text-orientation:mixed;dominant-baseline:auto;baseline-shift:baseline;text-anchor:start;white-space:normal;shape-padding:0;shape-margin:0;inline-size:0;clip-rule:nonzero;display:inline;overflow:visible;visibility:visible;opacity:1;isolation:auto;mix-blend-mode:normal;color-interpolation:sRGB;color-interpolation-filters:linearRGB;solid-color:#000000;solid-opacity:1;vector-effect:none;fill:#ffffff;fill-opacity:1;fill-rule:nonzero;stroke:none;stroke-width:6.20893;stroke-linecap:round;stroke-linejoin:round;stroke-miterlimit:4;stroke-dasharray:none;stroke-dashoffset:0;stroke-opacity:1;color-rendering:auto;image-rendering:auto;shape-rendering:auto;text-rendering:auto;enable-background:accumulate;stop-color:#000000;stop-opacity:1"
         inkscape:connector-curvature="0" />
      <path
         id="path1630"
         d="m 45.823697,950.74682 c 3.157616,0.20397 6.194415,1.08941 8.667908,2.78759 a 2.7001187,2.7001187 0 0 0 1.96492,0.43711 c 4.540327,-0.74247 9.155985,-1.00064 13.715249,-0.69071 a 2.7001187,2.7001187 0 0 0 0.222679,0.006 c 5.773552,-0.0883 11.135387,3.50992 14.79153,8.32152 a 2.7001187,2.7001187 0 0 0 2.002026,1.0639 c 4.239444,0.23339 8.425957,1.27657 11.449317,3.66799 1.933354,1.63822 2.755464,3.83625 3.020574,6.62875 0.26598,2.8017 -0.13928,6.0427 -0.58968,9.0123 a 2.7001187,2.7001187 0 0 0 0.16907,1.4226 c 1.30209,3.2049 2.11935,6.5768 2.11749,9.8721 a 2.7001187,2.7001187 0 0 0 0.008,0.2061 c 0.13566,1.79 -0.44526,3.7325 -1.48657,5.0989 -1.04131,1.3664 -2.378944,2.16643 -4.171069,2.16293 l 0.692765,0.093 c -1.865712,-0.4996 -3.741937,-0.2375 -5.181363,0.4185 -1.439416,0.656 -2.499009,1.5825 -3.42469,2.4123 -1.851354,1.6597 -3.059634,2.7678 -4.432924,2.868 a 2.7001187,2.7001187 0 0 0 -0.181435,0.019 c -4.380862,0.6174 -9.069434,-2.4095 -13.179179,-5.7503 a 2.7001187,2.7001187 0 0 0 -3.498913,0.081 c -2.443153,2.1763 -7.81069,3.6722 -14.628642,2.6307 a 2.7001187,2.7001187 0 0 0 -0.632981,-0.023 c -1.412496,0.1184 -3.334769,-0.5828 -5.661768,-1.3916 -2.327004,-0.8087 -5.359684,-1.7136 -8.459664,-0.2928 l 0.066,-0.031 c -2.26625,0.9646 -5.16332,1.6995 -7.44113,1.569 -2.22805,-0.1277 -3.63656,-0.7503 -4.6556,-2.7958 -0.20939,-1.38173 -0.63721,-2.65823 -1.42678,-3.61023 -0.96916,-1.1686 -2.19893,-1.7937 -3.25769,-2.2 -2.03775,-0.7819 -3.59678,-1.0891 -4.59374,-1.802 -1.26327,-1.2989 -1.55495,-2.8005 -1.24947,-4.8762 0.31405,-2.1339 1.38436,-4.5994 2.50512,-6.5505 a 2.7001187,2.7001187 0 0 0 0.19587,-0.4226 c 1.05461,-2.8988 0.21572,-5.535 -0.33195,-7.6762 -0.54767,-2.1412 -0.86527,-3.82711 -0.50515,-5.03501 a 2.7001187,2.7001187 0 0 0 0.10514,-0.567 c 0.13937,-1.84832 1.07668,-2.97243 2.77728,-3.95664 1.70061,-0.98421 4.12172,-1.53596 6.16485,-1.57317 a 2.7001187,2.7001187 0 0 0 1.17937,-0.29484 c 1.53286,-0.78312 2.35946,-2.04569 2.97933,-3.18346 0.61988,-1.13776 1.06673,-2.27438 1.534,-3.28036 0.93456,-2.01196 1.64224,-3.09618 2.98759,-3.39995 a 2.7001187,2.7001187 0 0 0 0.28866,-0.0824 c 2.95096,-1.02029 6.2278,-1.49673 9.38542,-1.29276 z"
         style="color:#000000;font-style:normal;font-variant:normal;font-weight:normal;font-stretch:normal;font-size:medium;line-height:normal;font-family:sans-serif;font-variant-ligatures:normal;font-variant-position:normal;font-variant-caps:normal;font-variant-numeric:normal;font-variant-alternates:normal;font-variant-east-asian:normal;font-feature-settings:normal;font-variation-settings:normal;text-indent:0;text-align:start;text-decoration:none;text-decoration-line:none;text-decoration-style:solid;text-decoration-color:#000000;letter-spacing:normal;word-spacing:normal;text-transform:none;writing-mode:lr-tb;direction:ltr;text-orientation:mixed;dominant-baseline:auto;baseline-shift:baseline;text-anchor:start;white-space:normal;shape-padding:0;shape-margin:0;inline-size:0;clip-rule:nonzero;display:inline;overflow:visible;visibility:visible;opacity:1;isolation:auto;mix-blend-mode:normal;color-interpolation:sRGB;color-interpolation-filters:linearRGB;solid-color:#000000;solid-opacity:1;vector-effect:none;fill:#29c47d;fill-opacity:1;fill-rule:nonzero;stroke:none;stroke-width:6.20893;stroke-linecap:round;stroke-linejoin:round;stroke-miterlimit:4;stroke-dasharray:none;stroke-dashoffset:0;stroke-opacity:1;color-rendering:auto;image-rendering:auto;shape-rendering:auto;text-rendering:auto;enable-background:accumulate;stop-color:#000000;stop-opacity:1"
         inkscape:connector-curvature="0" />
    </g>
    <g
       style="font-size:87.5px;line-height:1.25;font-family:'Source Sans Pro';-inkscape-font-specification:'Source Sans Pro';letter-spacing:0px;word-spacing:0px;writing-mode:lr-tb;fill:#444444;fill-opacity:1;stroke-width:0.9375"
       id="text1723"
       aria-label="lefed">
      <path
         sodipodi:nodetypes="ccccccccccccccccccccccccccccccccccccccccccccccccccccccccccccccccccccccccccccccccccccccccccccccccc"
         inkscape:connector-curvature="0"
         d="m 35.348286,973.72513 -0.02381,0.011 -1.646119,0.70861 -0.01828,0.007 -1.560057,0.60424 -1.596684,0.57129 -0.02194,0.007 -0.827634,0.26185 -0.0075,0.002 -0.02194,0.007 -0.864254,0.25817 -0.033,0.009 -1.902468,0.53101 -0.02381,0.005 -2.200922,0.53467 -0.01828,0.004 -2.60925,0.60608 -1.232297,0.94482 -0.219731,0.88074 v 3.11829 l 0.642703,1.41357 0.851437,0.42297 1.151738,0.23804 0.02559,0.005 0.0075,0.002 0.950325,0.21607 0.01097,0.002 0.32775,0.0861 0.33509,0.11353 0.331416,0.14099 0.340575,0.17212 0.02381,0.0128 0.289313,0.15198 0.263672,0.15563 0.02194,0.0128 0.190425,0.12451 0.183103,0.1355 0.166632,0.13733 0.151978,0.14465 0.108028,0.11536 0.128175,0.1648 0.0094,0.011 0.139153,0.18128 0.09159,0.13366 0.1062,0.17212 0.09338,0.17212 0.06225,0.13001 0.08053,0.19409 0.06225,0.17578 0.05306,0.18127 0.09521,0.41565 0.07688,0.49439 0.04575,0.49255 0.0165,0.5951 v 0.0421 l 0.642703,1.41357 1.486819,0.44495 0.170287,-0.033 0.754388,-0.17578 0.05681,-0.0128 0.717778,-0.19043 0.06225,-0.0183 0.682988,-0.20691 0.04941,-0.0165 0.653691,-0.21789 0.04763,-0.0165 0.624384,-0.22705 0.04762,-0.0165 0.598753,-0.2362 0.05128,-0.022 1.124268,-0.4834 0.05494,-0.0238 1.045528,-0.48889 0.02016,-0.011 0.970453,-0.46692 0.01284,-0.007 0.921028,-0.43396 0.0075,-0.004 0.856932,-0.36987 1.041871,-1.1499 0.08972,-0.52918 0.0165,-0.73425 v -0.007 l 0.08419,-3.14392 v -0.011 l 0.09159,-1.48681 0.0019,-0.0183 0.11536,-1.61499 v 0.0201 l 0.148312,-1.81458 0.0019,-0.0128 0.190425,-2.13318 -0.514528,-1.46301 -0.446775,-0.34424 -1.624144,-0.89721 -1.67175,-0.0714 z"
         style="font-style:normal;font-variant:normal;font-weight:normal;font-stretch:normal;font-family:'Donegal One';-inkscape-font-specification:'Donegal One';fill:#444444;fill-opacity:1;stroke:#ffffff;stroke-width:5.30625;stroke-linejoin:round;stroke-miterlimit:4;stroke-dasharray:none;stroke-opacity:1"
         id="path1734" />
    </g>
  </g>
  <g
     style="display:none"
     inkscape:groupmode="layer"
     id="layer2"
     inkscape:label="Layer 2"
     transform="translate(37.802922,-9.0105251)">
    <text
       xml:space="preserve"
       style="font-size:87.5px;line-height:1.25;font-family:'Source Sans Pro';-inkscape-font-specification:'Source Sans Pro';letter-spacing:0px;word-spacing:0px;writing-mode:lr-tb;stroke-width:0.9375"
       x="-157.68877"
       y="1044.9193"
       id="text1559"
       transform="translate(123.12724,-949.25782)"><tspan
         sodipodi:role="line"
         id="tspan1557"
         x="-157.68877"
         y="1044.9193"
         style="font-style:normal;font-variant:normal;font-weight:normal;font-stretch:normal;font-family:'Donegal One';-inkscape-font-specification:'Donegal One';stroke-width:0.9375">lefed</tspan></text>
  </g>
</svg>
