<svg xmlns="http://www.w3.org/2000/svg" viewBox="0 0 261.3 89.9"><path fill="#444" d="M2.2 83.1l3.6-1q1.4-.6 2.1-1.5.7-.9 1-2.4.2-1.5.2-4V31.6q0-2.3-.6-3.5-.6-1.3-1.6-2t-2.3-1L2 24.5v-3l3.3-.8 2.6-.6 2.2-.6 2-.8 2.2-1 2.8-1.4 1.6 1-.5 6.7-.1 7.8v49l7.3 2.3v3.5H2.2zm28.6-17.7q.2-4.7 1.7-8.9 1.6-4.2 4.4-7.4 2.9-3.2 6.9-5 4-2 9-2 4.1 0 7 1.3 3 1.2 4.7 3.6 1.9 2.3 2.7 5.6.8 3.2.7 7.2v1.4l-.1 1.5-.1 1.7h-28q0 3.7.6 6.4.7 2.6 1.8 4.4 1.2 1.8 2.7 3 1.5 1 3 1.7 1.6.6 3.1.8l2.8.2 4-1 4-1.2 4.4-1.6 1.4 3.7-4.4 2.4-4 2q-1.8 1-3.6 1.5L51.9 88q-5.4 0-9.4-1.6-4-1.5-6.7-4.4-2.6-2.9-3.8-7-1.2-4.2-1.1-9.5zm9-5.4q4.2 0 7.2-.2l5-.2 3.1-.2 1.7-.3q.7 0 1-1 .5-1 .5-2.2 0-3-1-5t-2.7-3q-1.7-1-4-1-2.2 0-4.8.8-.5.1-1.5 1-1 .6-2 2-1 1.5-1.7 3.8t-.8 5.5zm35.6 23.1l4.2-1q1.6-.6 2.4-1.5.8-.9 1-2.4.2-1.5.2-4l.1-25.4h-6.8v-5l6.8-.8v-8q0-4.3 1.7-7.8 1.8-3.4 4.7-5.7 3-2.4 7-3.7 4-1.2 8.5-1.2h1.7l1.8.3 2 .4-1.5 12h-3.7l-1.3-5q-.2-.6-1-1-.8-.3-2-.4-1.1-.2-2.4 0l-2.5.1-2 .5q-1 .2-1.3.5-.2.5-.3 2l-.2 3-.1 4-.1 4v6h12v5.8h-12v27l.3 5 9 2.3v3.5H75.4zm34.4-17.7q.1-4.7 1.7-8.9 1.5-4.2 4.4-7.4 2.8-3.2 6.8-5 4-2 9.1-2 4.1 0 7 1.3 2.9 1.2 4.7 3.6 1.8 2.3 2.7 5.6.8 3.2.7 7.2l-.1 1.4v1.5l-.2 1.7h-27.8q0 3.7.6 6.4.7 2.6 1.8 4.4 1.1 1.8 2.6 3 1.5 1 3 1.7 1.6.6 3.2.8l2.8.2 4-1 3.9-1.2 4.4-1.6 1.5 3.7-4.4 2.4-4 2q-1.9 1-3.7 1.5-1.7.7-3.5 1.2-5.5 0-9.5-1.6-4-1.5-6.6-4.4-2.6-2.9-3.9-7-1.2-4.2-1-9.5zm9-5.4q4.2 0 7.1-.2l5-.2 3.2-.2 1.6-.3q.8 0 1.1-1 .5-1 .5-2.2 0-3-1-5t-2.7-3q-1.7-1-4-1t-4.9.8q-.5.1-1.4 1-1 .6-2 2-1 1.5-1.7 3.8-.8 2.3-.9 5.5zm35.4 6.8q0-5 1.2-8.8 1.2-4 3.4-7 1.7-2.2 3.8-3.9 2-1.6 4.4-2.7 2.4-1 4.8-1.7 2.5-.6 4.9-.6 2.4 0 4.7.4l4.2.7V31.8q0-1.4-.3-2.5-.3-1-1-2t-2.1-1.6q-.9-.5-1.8-.7l-2.2-.5v-3l4.9-1.3 3.8-1 3.3-1.3 3.5-1.6 1.6 1-.3 4-.2 3.1-.1 3.2-.1 4v47.2l.1 1 .4.8q.2.3.8.6l1.3.7 1.5.7 1.5.5v3.5h-14l-.1-2-.2-2v-2.3q-4.7 3.8-8.3 5.5-3.6 1.6-5.9 1.6-3 0-5.6-.9-2.6-.9-4.5-2.4-2-1.5-3.4-3.5t-2.3-4.4q-.9-2.3-1.3-4.7-.4-2.4-.4-4.7zm18.6 13.8q1.2 0 2.8-.5l3.5-1 3.5-1.5 3-1.6V50.3q-2-1-5-1.9-2.9-.8-6.2-.9-2.2 0-4.2.8t-3.5 2.8q-1.5 2-2.5 5-.9 3-.9 7.5 0 3.8.8 7 .8 3 2 5.3 1.3 2.2 3 3.4 1.7 1.3 3.7 1.3z" aria-label="lefed"/><g stroke-width="1.1"><path d="M231.3 46.7v.3c-.3 1.3-1 2.6-2.2 3.2-1.3.6-2.7-.3-3-1.5-.3-.5-.5-1.5-1.2-1.3-.8 3.5-1.2 7.2-3.3 10.1a3 3 0 01-2.3 1.5c-2 0-3.3-2-4.3-3.7a16 16 0 01-2-6c-2.2-.7-4.5-.6-6.7-.6h-4.2c.4 1-.2 2.5-1.5 2.8 4.2 2.4 8.7 4.5 12 8.2 1.2 1.6 2.3 3.4 2 5.5.1 5.3-2 10.3-3 15.4-.2 1.3-2.2 2.1-3.2 3-.4 1.4-.3 1.6-.5 3h18.6c-.6-1-.5-1-1.5-3.5a38.9 38.9 0 01-.3-19.2c.7-3 2.3-5.8 4-8.3 2-2.7 4.5-5 7.3-7-1.6-.6-3-1.4-4.7-1.8z" fill="#29c47d"/><path d="M207 0a26 26 0 00-10 1.4c-3.1.7-4.7 3.5-5.7 5.5-.5 1-.8 2-1.2 2.6l-.5.7a15 15 0 00-6.7 2 9.2 9.2 0 00-4.7 6.7c-.7 2.5 0 5 .4 6.7.5 2 .7 3.2.5 4-1.1 2-2.2 4.3-2.6 7-.4 2.7 0 6 2.5 8.3a2.3 2.3 0 00.2.2c2 1.6 4.2 2 5.3 2.3l1 .5.3 1.2a2.3 2.3 0 00.2 1c1.6 3.3 5 5 8 5.1 3.2.1 6.2-.7 8.7-1.8 1-.4 2-.2 3.9.4 1.8.7 4 1.7 6.8 1.5h-.5c6 1 11.1 0 14.8-2.3 3.7 2.8 8.2 5.7 13.7 5 3.2-.4 5.1-2.5 6.6-3.7.7-.7 1.3-1.2 1.8-1.4.4-.2.7-.2 1.3 0a2.3 2.3 0 00.6 0c3 0 5.7-1.6 7.4-3.7 1.6-2.2 2.4-4.9 2.2-7.6 0-3.3-.8-6.5-2-9.5.4-2.6.8-5.5.5-8.5a13 13 0 00-4.3-9 21 21 0 00-11.6-4 20.7 20.7 0 00-16-8.3c-4-.3-8 0-12 .5a19.7 19.7 0 00-9-2.8z" fill="#fff"/><path d="M206.6 4.7c2.7.2 5.4 1 7.5 2.4a2.3 2.3 0 001.7.4c4-.6 8-.8 12-.6a2.3 2.3 0 00.2 0c5 0 9.6 3 12.8 7.3a2.3 2.3 0 001.8 1c3.7.1 7.3 1 10 3.1 1.6 1.4 2.3 3.3 2.6 5.7.2 2.5-.2 5.3-.6 8a2.3 2.3 0 00.2 1.1 23 23 0 011.8 8.6 2.3 2.3 0 000 .2c.2 1.5-.4 3.2-1.3 4.4-.9 1.2-2 2-3.6 2h.6a6.8 6.8 0 00-4.5.3c-1.2.6-2.2 1.4-3 2.1-1.6 1.5-2.6 2.5-3.8 2.5a2.3 2.3 0 00-.2 0c-3.8.6-7.9-2-11.4-5a2.3 2.3 0 00-3 .1c-2.2 2-6.9 3.2-12.8 2.3a2.3 2.3 0 00-.6 0c-1.2.1-2.9-.5-4.9-1.2-2-.7-4.6-1.5-7.3-.3a17 17 0 01-6.5 1.4c-1.9 0-3.1-.7-4-2.5a6.4 6.4 0 00-1.2-3c-.9-1-2-1.7-2.9-2-1.7-.7-3.1-1-4-1.6-1-1-1.3-2.4-1-4.2.2-1.9 1.1-4 2.1-5.7a2.3 2.3 0 00.2-.4c1-2.5.2-4.8-.3-6.7-.5-1.8-.8-3.3-.4-4.3a2.3 2.3 0 000-.5c.2-1.6 1-2.6 2.5-3.5 1.4-.8 3.6-1.3 5.3-1.3a2.3 2.3 0 001-.3 5.8 5.8 0 002.6-2.8l1.4-2.8c.8-1.8 1.4-2.7 2.6-3a2.3 2.3 0 00.2 0 19 19 0 018.2-1.2z" fill="#29c47d"/></g><path d="M191.1 15.4h0l-1.6.7h0l-1.6.7-1.6.5h0l-.8.3h0l-1 .3h0l-1.9.5h0l-2.2.5h0l-2.6.7-1.3 1-.2.8v3.1l.7 1.4.8.4 1.2.3h0l1 .2h.3l.3.2.4.1.3.2h0l.3.2.3.1h0l.2.2.2.1.1.1.2.2v.1l.2.2h0l.2.2h0l.2.3v.1l.1.2.1.2v.1l.1.2.1.4v.5l.1.5v.6l.7 1.5 1.5.4h.2l.7-.2h0l.8-.2h0l.7-.2h0l.7-.3h0l.7-.2h0l.7-.3h0l1.1-.5h0l1.1-.5h0l1-.4h0l1-.5h0l.8-.4 1-1 .1-.6v-.8h0l.1-3h0l.1-1.6h0l.2-1.7h0l.1-1.8h0l.2-2-.5-1.6-.5-.3-1.6-.9h-1.7z" stroke="#fff" stroke-width="5.3" stroke-linejoin="round" fill="#444"/></svg>
